<svg width="43" height="43" viewBox="0 0 43 43" fill="none" xmlns="http://www.w3.org/2000/svg">
<path d="M23.583 41.127L23.4182 39.636L22.083 39.7836V41.127H23.583ZM23.583 41.1504L25.083 41.1561V41.1504H23.583ZM23.4834 41.25L23.4834 42.75L23.4844 42.75L23.4834 41.25ZM3.93848 41.0713L3.01746 39.8873L3.01682 39.8878L3.93848 41.0713ZM9.13184 37.0312L10.0529 38.2152L11.5697 37.0352L10.0567 35.8503L9.13184 37.0312ZM21.375 1.5V3C31.5232 3 39.75 11.2268 39.75 21.375H41.25H42.75C42.75 9.56991 33.1801 0 21.375 0V1.5ZM41.25 21.375H39.75C39.75 30.832 32.6043 38.6206 23.4182 39.636L23.583 41.127L23.7478 42.6179C34.4367 41.4364 42.75 32.3786 42.75 21.375H41.25ZM23.583 41.127H22.083V41.1504H23.583H25.083V41.127H23.583ZM23.583 41.1504L22.083 41.1446C22.0859 40.3805 22.7051 39.7505 23.4824 39.75L23.4834 41.25L23.4844 42.75C24.3719 42.7494 25.0796 42.0303 25.083 41.1561L23.583 41.1504ZM23.4834 41.25V39.75H4V41.25V42.75H23.4834V41.25ZM4 41.25V39.75C5.32779 39.75 5.91526 41.433 4.86014 42.2547L3.93848 41.0713L3.01682 39.8878C1.81153 40.8265 2.48182 42.75 4 42.75V41.25ZM3.93848 41.0713L4.8595 42.2552L10.0529 38.2152L9.13184 37.0312L8.21082 35.8473L3.01746 39.8873L3.93848 41.0713ZM9.13184 37.0312L10.0567 35.8503C5.75828 32.4842 3 27.2523 3 21.375H1.5H0C0 28.2139 3.21402 34.3022 8.20701 38.2122L9.13184 37.0312ZM1.5 21.375H3C3 11.2268 11.2268 3 21.375 3V1.5V0C9.56991 0 0 9.56991 0 21.375H1.5Z" fill="black"/>
</svg>
