<svg width="50" height="50" viewBox="0 0 50 50" fill="none" xmlns="http://www.w3.org/2000/svg">
<g filter="url(#filter0_d_69_61)">
<path d="M26.833 39.3838L26.6133 37.3959L24.833 37.5927V39.3838H26.833ZM26.833 39.4004L28.833 39.4081V39.4004H26.833ZM26.7334 39.5V41.5H26.7347L26.7334 39.5ZM8.31348 39.3213L7.08544 37.7427L7.08458 37.7434L8.31348 39.3213ZM13.1992 35.5205L14.4273 37.0991L16.4497 35.5257L14.4323 33.9459L13.1992 35.5205ZM24.75 2V4C34.0008 4 41.5 11.4992 41.5 20.75H43.5H45.5C45.5 9.29009 36.2099 0 24.75 0V2ZM43.5 20.75H41.5C41.5 29.3701 34.9864 36.4704 26.6133 37.3959L26.833 39.3838L27.0527 41.3717C37.4296 40.2247 45.5 31.4323 45.5 20.75H43.5ZM26.833 39.3838H24.833V39.4004H26.833H28.833V39.3838H26.833ZM26.833 39.4004L24.833 39.3927C24.837 38.3555 25.6773 37.5007 26.7321 37.5L26.7334 39.5L26.7347 41.5C27.8997 41.4993 28.8286 40.5553 28.833 39.4081L26.833 39.4004ZM26.7334 39.5V37.5H8.375V39.5V41.5H26.7334V39.5ZM8.375 39.5V37.5C10.1772 37.5 10.9742 39.7841 9.54237 40.8992L8.31348 39.3213L7.08458 37.7434C5.50263 38.9754 6.38244 41.5 8.375 41.5V39.5ZM8.31348 39.3213L9.54151 40.8999L14.4273 37.0991L13.1992 35.5205L11.9712 33.9419L7.08544 37.7427L8.31348 39.3213ZM13.1992 35.5205L14.4323 33.9459C10.5129 30.8765 8 26.1073 8 20.75H6H4C4 27.389 7.12026 33.3003 11.9661 37.0951L13.1992 35.5205ZM6 20.75H8C8 11.4992 15.4992 4 24.75 4V2V0C13.2901 0 4 9.29009 4 20.75H6Z" fill="#404040"/>
</g>
<defs>
<filter id="filter0_d_69_61" x="0" y="0" width="49.5" height="49.5" filterUnits="userSpaceOnUse" color-interpolation-filters="sRGB">
<feFlood flood-opacity="0" result="BackgroundImageFix"/>
<feColorMatrix in="SourceAlpha" type="matrix" values="0 0 0 0 0 0 0 0 0 0 0 0 0 0 0 0 0 0 127 0" result="hardAlpha"/>
<feOffset dy="4"/>
<feGaussianBlur stdDeviation="2"/>
<feComposite in2="hardAlpha" operator="out"/>
<feColorMatrix type="matrix" values="0 0 0 0 0 0 0 0 0 0 0 0 0 0 0 0 0 0 0.25 0"/>
<feBlend mode="normal" in2="BackgroundImageFix" result="effect1_dropShadow_69_61"/>
<feBlend mode="normal" in="SourceGraphic" in2="effect1_dropShadow_69_61" result="shape"/>
</filter>
</defs>
</svg>
