<svg width="39" height="42" viewBox="0 0 39 42" fill="none" xmlns="http://www.w3.org/2000/svg">
<path d="M19.4761 0C20.9543 0 22.3722 0.598552 23.4175 1.66406C24.4628 2.72961 25.0503 4.17473 25.0503 5.68164V6.77148C30.6636 9.06617 34.5863 16.6209 34.4419 23.1699L34.3618 26.7861C37.2301 30.474 37.1269 35.9842 29.9839 35.9844H25.0503C25.0503 37.4913 24.4628 38.9364 23.4175 40.002C22.3722 41.0675 20.9543 41.666 19.4761 41.666C17.998 41.6659 16.5808 41.0673 15.5356 40.002C14.4903 38.9364 13.9028 37.4913 13.9028 35.9844H8.98291C1.82599 35.9843 1.65721 30.4858 4.52588 26.7979V23.165C4.38381 16.6238 8.29907 9.0753 13.9028 6.77734V5.68164C13.9028 4.17473 14.4903 2.72961 15.5356 1.66406C16.5808 0.598681 17.998 0.000122733 19.4761 0ZM17.6187 35.9844C17.6187 36.4867 17.8142 36.969 18.1626 37.3242C18.5109 37.6792 18.9836 37.8788 19.4761 37.8789C19.9688 37.8789 20.4421 37.6793 20.7905 37.3242C21.139 36.969 21.3345 36.4867 21.3345 35.9844H17.6187ZM19.4839 9.46973C13.1756 9.4698 8.10109 16.6521 8.24072 23.0811L8.32471 26.9346C8.34164 27.7141 8.0745 28.4735 7.57275 29.0703C6.53974 30.2988 7.39562 32.1962 8.98291 32.1963H29.9839C31.571 32.196 32.427 30.2988 31.394 29.0703C30.8922 28.4735 30.625 27.7142 30.6421 26.9346L30.7271 23.085C30.8688 16.6545 25.7937 9.46973 19.4839 9.46973ZM6.46533 2.86914C6.91922 2.55461 7.54232 2.66724 7.85693 3.12109C8.17141 3.57497 8.05784 4.1981 7.604 4.5127C5.91858 5.68121 3.37344 9.00835 1.94873 13.291C1.77422 13.8148 1.20798 14.0981 0.684082 13.9238C0.160467 13.7492 -0.122986 13.183 0.0512695 12.6592C1.56746 8.10159 4.32224 4.35472 6.46533 2.86914ZM30.7993 3.12109C31.114 2.6672 31.738 2.5545 32.1919 2.86914C34.3349 4.35492 37.0889 8.10192 38.605 12.6592C38.7793 13.183 38.4959 13.7493 37.9722 13.9238C37.4483 14.0981 36.882 13.8148 36.7075 13.291C35.2828 9.00827 32.7377 5.68115 31.0522 4.5127C30.5984 4.19812 30.4849 3.57497 30.7993 3.12109ZM19.4761 3.78711C18.9836 3.78723 18.5109 3.98682 18.1626 4.3418C17.8142 4.69698 17.6187 5.17934 17.6187 5.68164C17.6187 5.72053 17.6202 5.75926 17.6226 5.79785C18.2322 5.72079 18.8534 5.68164 19.4839 5.68164C20.1093 5.68164 20.7256 5.72103 21.3306 5.79688C21.3328 5.75968 21.3344 5.68538 21.3345 5.68164C21.3345 5.17934 21.139 4.69698 20.7905 4.3418C20.4421 3.98669 19.9688 3.78711 19.4761 3.78711Z" fill="#404040"/>
</svg>
