<svg width="51" height="47" viewBox="0 0 51 47" fill="none" xmlns="http://www.w3.org/2000/svg">
<path d="M41.65 41.125L28.2625 28.7875C27.2 29.5708 25.9781 30.191 24.5969 30.6479C23.2156 31.1049 21.7458 31.3333 20.1875 31.3333C16.3271 31.3333 13.0599 30.1012 10.3859 27.637C7.71198 25.1727 6.375 22.1618 6.375 18.6042C6.375 15.0465 7.71198 12.0356 10.3859 9.57135C13.0599 7.10712 16.3271 5.875 20.1875 5.875C24.0479 5.875 27.3151 7.10712 29.9891 9.57135C32.663 12.0356 34 15.0465 34 18.6042C34 20.0403 33.7521 21.3948 33.2563 22.6677C32.7604 23.9406 32.0875 25.0667 31.2375 26.0458L44.625 38.3833L41.65 41.125ZM20.1875 27.4167C22.8438 27.4167 25.1016 26.5599 26.9609 24.8464C28.8203 23.1328 29.75 21.0521 29.75 18.6042C29.75 16.1563 28.8203 14.0755 26.9609 12.362C25.1016 10.6484 22.8438 9.79167 20.1875 9.79167C17.5312 9.79167 15.2734 10.6484 13.4141 12.362C11.5547 14.0755 10.625 16.1563 10.625 18.6042C10.625 21.0521 11.5547 23.1328 13.4141 24.8464C15.2734 26.5599 17.5312 27.4167 20.1875 27.4167Z" fill="#706969"/>
</svg>
