<svg width="41" height="41" viewBox="0 0 41 41" fill="none" xmlns="http://www.w3.org/2000/svg">
<path d="M11.6953 24.3076C11.9767 23.8327 12.5903 23.6758 13.0654 23.957L28.1494 32.8838C28.2692 32.9548 28.3689 33.0466 28.4463 33.1523C29.2398 30.9337 31.5366 29.5117 33.9258 29.5117C36.882 29.5122 39.6961 31.6892 39.6963 34.8594C39.6962 38.0296 36.882 40.2066 33.9258 40.207C30.9692 40.207 28.1544 38.03 28.1543 34.8594C28.1543 34.7707 28.1568 34.6828 28.1611 34.5957C27.8554 34.7823 27.4596 34.7995 27.1299 34.6045L12.0459 25.6777C11.5711 25.3964 11.4144 24.7827 11.6953 24.3076ZM33.9258 31.5117C31.8432 31.5117 30.1545 33.0107 30.1543 34.8594L30.1592 35.0312C30.2568 36.7431 31.803 38.1155 33.7314 38.2021L33.9258 38.207C35.943 38.2066 37.5906 36.7998 37.6914 35.0312L37.6963 34.8594C37.6961 33.0686 36.1114 31.6054 34.1191 31.5156L33.9258 31.5117ZM6.27148 16.1221C9.22794 16.1223 12.042 18.2992 12.042 21.4697C12.0418 24.64 9.22783 26.8171 6.27148 26.8174C3.31496 26.8174 0.500204 24.6402 0.5 21.4697C0.5 18.2991 3.31485 16.1221 6.27148 16.1221ZM6.27148 18.1221C4.18882 18.1221 2.5 19.6209 2.5 21.4697L2.50488 21.6416C2.6026 23.3534 4.14883 24.7258 6.07715 24.8125L6.27148 24.8174C8.28886 24.8172 9.93614 23.4102 10.0371 21.6416L10.042 21.4697C10.042 19.6786 8.45743 18.2155 6.46484 18.126L6.27148 18.1221ZM27.1299 8.33496C27.605 8.05377 28.2186 8.21061 28.5 8.68555C28.7811 9.16067 28.6243 9.7743 28.1494 10.0557L13.0654 18.9824C12.5904 19.2635 11.9767 19.1066 11.6953 18.6318C11.4141 18.1567 11.571 17.5431 12.0459 17.2617L27.1299 8.33496ZM33.9258 0.5C36.8821 0.500479 39.6963 2.67735 39.6963 5.84766C39.6962 9.01788 36.882 11.1948 33.9258 11.1953C30.9692 11.1953 28.1544 9.01823 28.1543 5.84766C28.1543 2.677 30.9691 0.5 33.9258 0.5ZM33.9258 2.5C31.8431 2.5 30.1543 3.99886 30.1543 5.84766L30.1592 6.01953C30.2568 7.73137 31.8031 9.10374 33.7314 9.19043L33.9258 9.19531C35.943 9.19486 37.5906 7.78811 37.6914 6.01953L37.6963 5.84766C37.6963 4.05672 36.1115 2.59368 34.1191 2.50391L33.9258 2.5Z" fill="black"/>
<path d="M11.6953 24.3076L11.2651 24.0527L11.2649 24.0531L11.6953 24.3076ZM13.0654 23.957L13.3201 23.5267L13.0654 23.957ZM28.1494 32.8838L28.4044 32.4537L28.4041 32.4535L28.1494 32.8838ZM28.4463 33.1523L28.0428 33.4476L28.5996 34.2084L28.9171 33.3207L28.4463 33.1523ZM33.9258 29.5117L33.9259 29.0117H33.9258V29.5117ZM39.6963 34.8594L40.1963 34.8594V34.8593L39.6963 34.8594ZM33.9258 40.207V40.707H33.9259L33.9258 40.207ZM28.1543 34.8594L27.6543 34.8593V34.8594L28.1543 34.8594ZM28.1611 34.5957L28.6605 34.6206L28.7077 33.6763L27.9006 34.1689L28.1611 34.5957ZM27.1299 34.6045L26.8752 35.0348L26.8753 35.0348L27.1299 34.6045ZM12.0459 25.6777L11.791 26.1079L11.7912 26.108L12.0459 25.6777ZM33.9258 31.5117L33.9359 31.0117H33.9258V31.5117ZM30.1543 34.8594L29.6543 34.8593V34.8665L29.6545 34.8736L30.1543 34.8594ZM30.1592 35.0312L29.6594 35.0454L29.6596 35.0526L29.66 35.0597L30.1592 35.0312ZM33.7314 38.2021L33.709 38.7017L33.7189 38.702L33.7314 38.2021ZM33.9258 38.207L33.9132 38.707L33.9259 38.707L33.9258 38.207ZM37.6914 35.0312L38.1906 35.0597L38.191 35.0526L38.1912 35.0454L37.6914 35.0312ZM37.6963 34.8594L38.1961 34.8736L38.1963 34.8665V34.8593L37.6963 34.8594ZM34.1191 31.5156L34.1417 31.016L34.1292 31.0157L34.1191 31.5156ZM6.27148 16.1221L6.27152 15.6221H6.27148V16.1221ZM12.042 21.4697L12.542 21.4698V21.4697H12.042ZM6.27148 26.8174V27.3174H6.27152L6.27148 26.8174ZM0.5 21.4697H0V21.4698L0.5 21.4697ZM6.27148 18.1221L6.28159 17.6221H6.27148V18.1221ZM2.5 21.4697H2V21.4768L2.0002 21.4839L2.5 21.4697ZM2.50488 21.6416L2.00508 21.6558L2.00529 21.663L2.0057 21.6701L2.50488 21.6416ZM6.07715 24.8125L6.05469 25.3121L6.06459 25.3123L6.07715 24.8125ZM6.27148 24.8174L6.25892 25.3174L6.27154 25.3174L6.27148 24.8174ZM10.0371 21.6416L10.5363 21.6701L10.5367 21.663L10.5369 21.6558L10.0371 21.6416ZM10.042 21.4697L10.5418 21.4839L10.542 21.4768V21.4697H10.042ZM6.46484 18.126L6.4873 17.6263L6.47494 17.6261L6.46484 18.126ZM27.1299 8.33496L26.8752 7.90467L27.1299 8.33496ZM28.5 8.68555L28.9303 8.43098L28.9302 8.43068L28.5 8.68555ZM28.1494 10.0557L28.4041 10.486L28.4043 10.4858L28.1494 10.0557ZM13.0654 18.9824L13.32 19.4127L13.3201 19.4127L13.0654 18.9824ZM11.6953 18.6318L11.265 18.8865L11.2652 18.8868L11.6953 18.6318ZM12.0459 17.2617L11.7912 16.8314L11.791 16.8316L12.0459 17.2617ZM33.9258 0.5L33.9259 0H33.9258V0.5ZM39.6963 5.84766L40.1963 5.84767V5.84766H39.6963ZM33.9258 11.1953V11.6953H33.9259L33.9258 11.1953ZM28.1543 5.84766H27.6543V5.84767L28.1543 5.84766ZM33.9258 2.5L33.9359 2H33.9258V2.5ZM30.1543 5.84766H29.6543V5.85476L29.6545 5.86186L30.1543 5.84766ZM30.1592 6.01953L29.6594 6.03373L29.6596 6.04087L29.66 6.048L30.1592 6.01953ZM33.7314 9.19043L33.709 9.69002L33.7189 9.69027L33.7314 9.19043ZM33.9258 9.19531L33.9132 9.69532L33.9259 9.69531L33.9258 9.19531ZM37.6914 6.01953L38.1906 6.04799L38.191 6.04086L38.1912 6.03373L37.6914 6.01953ZM37.6963 5.84766L38.1961 5.86186L38.1963 5.85476V5.84766H37.6963ZM34.1191 2.50391L34.1417 2.00426L34.1292 2.00401L34.1191 2.50391ZM11.6953 24.3076L12.1255 24.5625C12.266 24.3253 12.5729 24.2466 12.8108 24.3873L13.0654 23.957L13.3201 23.5267C12.6077 23.1051 11.6874 23.34 11.2651 24.0527L11.6953 24.3076ZM13.0654 23.957L12.8108 24.3873L27.8948 33.3141L28.1494 32.8838L28.4041 32.4535L13.3201 23.5267L13.0654 23.957ZM28.1494 32.8838L27.8944 33.3139C27.9558 33.3503 28.0051 33.3961 28.0428 33.4476L28.4463 33.1523L28.8498 32.8571C28.7327 32.6971 28.5826 32.5593 28.4044 32.4537L28.1494 32.8838ZM28.4463 33.1523L28.9171 33.3207C29.6297 31.3283 31.7172 30.0117 33.9258 30.0117V29.5117V29.0117C31.356 29.0117 28.85 30.539 27.9755 32.984L28.4463 33.1523ZM33.9258 29.5117L33.9257 30.0117C36.6698 30.0122 39.1961 32.0253 39.1963 34.8594L39.6963 34.8594L40.1963 34.8593C40.1961 31.3532 37.0942 29.0122 33.9259 29.0117L33.9258 29.5117ZM39.6963 34.8594L39.1963 34.8594C39.1962 37.6936 36.6698 39.7066 33.9257 39.707L33.9258 40.207L33.9259 40.707C37.0942 40.7065 40.1962 38.3657 40.1963 34.8594L39.6963 34.8594ZM33.9258 40.207V39.707C31.1813 39.707 28.6544 37.6939 28.6543 34.8594L28.1543 34.8594L27.6543 34.8594C27.6544 38.366 30.7571 40.707 33.9258 40.707V40.207ZM28.1543 34.8594L28.6543 34.8594C28.6543 34.78 28.6565 34.7005 28.6605 34.6206L28.1611 34.5957L27.6618 34.5708C27.657 34.6651 27.6543 34.7614 27.6543 34.8593L28.1543 34.8594ZM28.1611 34.5957L27.9006 34.1689C27.7452 34.2638 27.5475 34.2706 27.3844 34.1741L27.1299 34.6045L26.8753 35.0348C27.3716 35.3284 27.9656 35.3008 28.4216 35.0225L28.1611 34.5957ZM27.1299 34.6045L27.3845 34.1742L12.3005 25.2474L12.0459 25.6777L11.7912 26.108L26.8752 35.0348L27.1299 34.6045ZM12.0459 25.6777L12.3008 25.2476C12.0639 25.1072 11.985 24.8002 12.1257 24.5621L11.6953 24.3076L11.2649 24.0531C10.8439 24.7653 11.0783 25.6856 11.791 26.1079L12.0459 25.6777ZM33.9258 31.5117V31.0117C31.6247 31.0117 29.6545 32.6802 29.6543 34.8593L30.1543 34.8594L30.6543 34.8594C30.6544 33.3412 32.0617 32.0117 33.9258 32.0117V31.5117ZM30.1543 34.8594L29.6545 34.8736L29.6594 35.0454L30.1592 35.0312L30.659 35.0171L30.6541 34.8452L30.1543 34.8594ZM30.1592 35.0312L29.66 35.0597C29.7748 37.0741 31.5738 38.6057 33.709 38.7016L33.7314 38.2021L33.7539 37.7027C32.0323 37.6253 30.7387 36.4121 30.6584 35.0028L30.1592 35.0312ZM33.7314 38.2021L33.7189 38.702L33.9132 38.7069L33.9258 38.207L33.9383 37.7072L33.744 37.7023L33.7314 38.2021ZM33.9258 38.207L33.9259 38.707C36.1567 38.7065 38.0719 37.1414 38.1906 35.0597L37.6914 35.0312L37.1922 35.0028C37.1092 36.4583 35.7293 37.7066 33.9257 37.707L33.9258 38.207ZM37.6914 35.0312L38.1912 35.0454L38.1961 34.8736L37.6963 34.8594L37.1965 34.8452L37.1916 35.0171L37.6914 35.0312ZM37.6963 34.8594L38.1963 34.8593C38.1961 32.7492 36.3459 31.1154 34.1416 31.0161L34.1191 31.5156L34.0966 32.0151C35.8769 32.0953 37.1962 33.3879 37.1963 34.8594L37.6963 34.8594ZM34.1191 31.5156L34.1292 31.0157L33.9359 31.0118L33.9258 31.5117L33.9157 32.0116L34.109 32.0155L34.1191 31.5156ZM6.27148 16.1221L6.27144 16.6221C9.01575 16.6223 11.542 18.6353 11.542 21.4697H12.042H12.542C12.542 17.9632 9.44013 15.6223 6.27152 15.6221L6.27148 16.1221ZM12.042 21.4697L11.542 21.4697C11.5418 24.304 9.0156 26.3172 6.27144 26.3174L6.27148 26.8174L6.27152 27.3174C9.44007 27.3171 12.5418 24.976 12.542 21.4698L12.042 21.4697ZM6.27148 26.8174V26.3174C3.52711 26.3174 1.00018 24.3041 1 21.4697L0.5 21.4697L0 21.4698C0.000225663 24.9763 3.10281 27.3174 6.27148 27.3174V26.8174ZM0.5 21.4697H1C1 18.6352 3.52696 16.6221 6.27148 16.6221V16.1221V15.6221C3.10274 15.6221 0 17.963 0 21.4697H0.5ZM6.27148 18.1221V17.6221C3.97039 17.6221 2 19.2904 2 21.4697H2.5H3C3 19.9515 4.40725 18.6221 6.27148 18.6221V18.1221ZM2.5 21.4697L2.0002 21.4839L2.00508 21.6558L2.50488 21.6416L3.00468 21.6274L2.9998 21.4555L2.5 21.4697ZM2.50488 21.6416L2.0057 21.6701C2.12068 23.6843 3.91951 25.216 6.05469 25.312L6.07715 24.8125L6.0996 24.313C4.37815 24.2356 3.08452 23.0224 3.00407 21.6131L2.50488 21.6416ZM6.07715 24.8125L6.06459 25.3123L6.25893 25.3172L6.27148 24.8174L6.28404 24.3175L6.08971 24.3127L6.07715 24.8125ZM6.27148 24.8174L6.27154 25.3174C8.50266 25.3171 10.4175 23.7517 10.5363 21.6701L10.0371 21.6416L9.53792 21.6131C9.45482 23.0687 8.07506 24.3172 6.27143 24.3174L6.27148 24.8174ZM10.0371 21.6416L10.5369 21.6558L10.5418 21.4839L10.042 21.4697L9.54219 21.4555L9.53731 21.6274L10.0371 21.6416ZM10.042 21.4697H10.542C10.542 19.3594 8.69195 17.7256 6.48729 17.6265L6.46484 18.126L6.44239 18.6255C8.22291 18.7055 9.54199 19.9979 9.54199 21.4697H10.042ZM6.46484 18.126L6.47494 17.6261L6.28158 17.6222L6.27148 18.1221L6.26139 18.622L6.45474 18.6259L6.46484 18.126ZM27.1299 8.33496L27.3845 8.76526C27.6224 8.62449 27.9293 8.70324 28.0698 8.94042L28.5 8.68555L28.9302 8.43068C28.5079 7.71797 27.5877 7.48305 26.8752 7.90467L27.1299 8.33496ZM28.5 8.68555L28.0697 8.94012C28.2104 9.17807 28.1316 9.48506 27.8945 9.6255L28.1494 10.0557L28.4043 10.4858C29.117 10.0635 29.3517 9.14326 28.9303 8.43098L28.5 8.68555ZM28.1494 10.0557L27.8948 9.62537L12.8108 18.5521L13.0654 18.9824L13.3201 19.4127L28.4041 10.486L28.1494 10.0557ZM13.0654 18.9824L12.8108 18.5521C12.573 18.6928 12.266 18.614 12.1254 18.3769L11.6953 18.6318L11.2652 18.8868C11.6875 19.5992 12.6077 19.8342 13.32 19.4127L13.0654 18.9824ZM11.6953 18.6318L12.1256 18.3772C11.9849 18.1394 12.0636 17.8324 12.3008 17.6919L12.0459 17.2617L11.791 16.8316C11.0785 17.2539 10.8434 18.1741 11.265 18.8865L11.6953 18.6318ZM12.0459 17.2617L12.3005 17.692L27.3845 8.76526L27.1299 8.33496L26.8752 7.90467L11.7912 16.8314L12.0459 17.2617ZM33.9258 0.5L33.9257 1C36.6699 1.00044 39.1963 3.01341 39.1963 5.84766H39.6963H40.1963C40.1963 2.3413 37.0942 0.000513196 33.9259 0L33.9258 0.5ZM39.6963 5.84766L39.1963 5.84764C39.1962 8.68184 36.6698 10.6949 33.9257 10.6953L33.9258 11.1953L33.9259 11.6953C37.0942 11.6948 40.1962 9.35393 40.1963 5.84767L39.6963 5.84766ZM33.9258 11.1953V10.6953C31.1813 10.6953 28.6544 8.68214 28.6543 5.84764L28.1543 5.84766L27.6543 5.84767C27.6544 9.35431 30.7571 11.6953 33.9258 11.6953V11.1953ZM28.1543 5.84766H28.6543C28.6543 3.0131 31.1813 1 33.9258 1V0.5V0C30.757 0 27.6543 2.34091 27.6543 5.84766H28.1543ZM33.9258 2.5V2C31.6247 2 29.6543 3.66834 29.6543 5.84766H30.1543H30.6543C30.6543 4.32939 32.0615 3 33.9258 3V2.5ZM30.1543 5.84766L29.6545 5.86186L29.6594 6.03373L30.1592 6.01953L30.659 6.00533L30.6541 5.83346L30.1543 5.84766ZM30.1592 6.01953L29.66 6.048C29.7749 8.06236 31.5738 9.59394 33.709 9.68993L33.7314 9.19043L33.7539 8.69093C32.0324 8.61355 30.7387 7.40038 30.6584 5.99106L30.1592 6.01953ZM33.7314 9.19043L33.7189 9.69027L33.9132 9.69516L33.9258 9.19531L33.9383 8.69547L33.744 8.69059L33.7314 9.19043ZM33.9258 9.19531L33.9259 9.69531C36.1567 9.69481 38.0719 8.12965 38.1906 6.04799L37.6914 6.01953L37.1922 5.99107C37.1092 7.44656 35.7293 8.69491 33.9257 8.69531L33.9258 9.19531ZM37.6914 6.01953L38.1912 6.03373L38.1961 5.86186L37.6963 5.84766L37.1965 5.83346L37.1916 6.00533L37.6914 6.01953ZM37.6963 5.84766H38.1963C38.1963 3.73738 36.346 2.10374 34.1416 2.00441L34.1191 2.50391L34.0966 3.0034C35.877 3.08362 37.1963 4.37606 37.1963 5.84766H37.6963ZM34.1191 2.50391L34.1292 2.00401L33.9359 2.0001L33.9258 2.5L33.9157 2.9999L34.109 3.0038L34.1191 2.50391Z" fill="black"/>
</svg>
